<?xml version="1.0" standalone="no"?>
<!DOCTYPE svg PUBLIC "-//W3C//DTD SVG 20010904//EN"
 "http://www.w3.org/TR/2001/REC-SVG-20010904/DTD/svg10.dtd">
<svg version="1.0" xmlns="http://www.w3.org/2000/svg"
 width="512.000000pt" height="512.000000pt" viewBox="0 0 512.000000 512.000000"
 preserveAspectRatio="xMidYMid meet">
<metadata>
Created by potrace 1.14, written by Peter Selinger 2001-2017
</metadata>
<g transform="translate(0.000000,512.000000) scale(0.100000,-0.100000)"
fill="#000000" stroke="none">
<path d="M2575 4566 c-67 -21 -100 -43 -153 -100 -90 -100 -112 -232 -58 -352
46 -102 41 -99 496 -354 574 -323 938 -521 973 -531 46 -12 105 -6 148 17 28
14 31 14 69 -18 22 -18 40 -35 40 -38 0 -3 -25 -36 -55 -73 -47 -59 -55 -74
-55 -110 0 -23 6 -49 13 -57 17 -22 270 -236 314 -265 41 -29 72 -31 113 -10
38 19 50 43 50 96 0 39 -5 47 -52 91 l-52 48 38 0 c20 0 46 5 57 10 30 16 52
68 46 107 -7 41 -27 54 177 -117 184 -154 193 -160 234 -160 98 0 162 112 106
187 -22 29 -526 459 -579 493 -33 22 -91 26 -129 9 -13 -6 -48 -40 -76 -75
-29 -35 -56 -67 -61 -70 -5 -3 -27 9 -48 27 -35 27 -39 34 -30 56 15 40 10
125 -10 169 -24 52 -44 68 -562 461 -666 506 -715 541 -772 558 -60 18 -127
18 -182 1z m163 -132 c136 -56 173 -223 74 -327 -40 -43 -81 -60 -142 -61
-100 0 -176 59 -200 157 -39 152 123 292 268 231z m1208 -860 c46 -22 74 -70
74 -129 0 -42 -5 -52 -38 -86 -43 -42 -76 -54 -126 -45 -71 14 -125 99 -106
167 27 93 111 133 196 93z"/>
<path d="M1523 3556 c-380 -378 -705 -707 -722 -733 -48 -72 -73 -149 -78
-243 -10 -160 35 -279 146 -391 198 -198 511 -200 705 -4 43 44 1126 1506
1126 1521 0 1 -69 41 -152 90 -172 98 -230 150 -277 247 -17 34 -36 93 -44
130 l-13 68 -691 -685z m-154 -741 c218 -119 211 -436 -12 -544 -147 -71 -333
-8 -403 135 -32 66 -42 156 -25 221 24 89 117 186 205 213 17 5 65 8 106 6 61
-2 86 -8 129 -31z"/>
<path d="M87 3933 c-10 -9 -9 -1393 1 -1393 9 0 1392 1383 1392 1393 0 9
-1384 10 -1393 0z"/>
<path d="M4800 3652 c-19 -9 -45 -33 -58 -52 -20 -29 -23 -44 -19 -89 3 -48 8
-58 46 -94 41 -38 44 -39 102 -35 63 5 97 26 125 80 46 89 -28 208 -131 208
-16 0 -46 -8 -65 -18z m146 -46 c29 -29 34 -40 34 -82 -1 -55 -25 -100 -40
-74 -5 8 -15 24 -23 34 -12 17 -12 21 5 38 21 21 23 38 5 62 -10 14 -28 19
-73 20 l-59 1 -3 -87 c-3 -83 -2 -88 18 -88 16 0 20 6 20 35 0 46 14 44 61 -6
l37 -40 -26 -10 c-88 -34 -188 65 -152 151 21 50 65 80 117 80 38 0 50 -5 79
-34z m-57 -35 c23 -15 5 -41 -29 -41 -22 0 -30 5 -30 18 0 32 28 42 59 23z"/>
<path d="M1865 2359 c-163 -222 -268 -330 -367 -378 -231 -110 -506 -71 -692
100 l-56 51 0 -326 c0 -179 -3 -326 -8 -326 -4 0 -151 144 -327 320 -176 176
-323 320 -328 320 -4 0 -6 -314 -5 -697 l3 -698 329 -2 c181 -1 331 -5 334 -8
8 -8 628 -6 636 2 4 4 27 6 51 4 25 -1 45 1 45 5 0 4 -22 31 -50 60 l-50 53 0
400 c0 226 4 401 9 401 5 0 26 -19 46 -42 21 -24 177 -185 347 -359 169 -175
308 -320 308 -323 0 -3 -40 -46 -90 -95 -49 -50 -90 -93 -90 -96 0 -4 81 -5
180 -4 100 1 184 -1 187 -5 8 -8 563 -8 821 1 l202 6 0 701 0 700 -415 -417
c-229 -229 -419 -417 -423 -417 -4 0 -126 119 -272 265 -262 262 -265 265
-250 290 8 13 76 106 151 207 275 371 359 485 359 492 0 3 -100 6 -222 6
l-223 -1 -140 -190z"/>
</g>
</svg>
