<?xml version="1.0" encoding="UTF-8" standalone="no"?>
<!-- Generator: Adobe Illustrator 21.0.2, SVG Export Plug-In . SVG Version: 6.00 Build 0)  -->

<svg
   version="1.1"
   x="0px"
   y="0px"
   viewBox="0 0 32 32"
   style="enable-background:new 0 0 32 32;"
   xml:space="preserve"
   id="svg2"
   inkscape:version="1.1 (c4e8f9e, 2021-05-24)"
   sodipodi:docname="avatar.svg"
   xmlns:inkscape="http://www.inkscape.org/namespaces/inkscape"
   xmlns:sodipodi="http://sodipodi.sourceforge.net/DTD/sodipodi-0.dtd"
   xmlns:xlink="http://www.w3.org/1999/xlink"
   xmlns="http://www.w3.org/2000/svg"
   xmlns:svg="http://www.w3.org/2000/svg"
   xmlns:rdf="http://www.w3.org/1999/02/22-rdf-syntax-ns#"
   xmlns:cc="http://creativecommons.org/ns#"
   xmlns:dc="http://purl.org/dc/elements/1.1/"><metadata
     id="metadata19"><rdf:RDF><cc:Work
         rdf:about=""><dc:format>image/svg+xml</dc:format><dc:type
           rdf:resource="http://purl.org/dc/dcmitype/StillImage" /><dc:title /></cc:Work></rdf:RDF></metadata><defs
     id="defs17"><linearGradient
       inkscape:collect="always"
       xlink:href="#%E6%9C%AA%E5%91%BD%E5%90%8D%E6%BC%B8%E5%B1%A4_14"
       id="linearGradient2865"
       gradientUnits="userSpaceOnUse"
       gradientTransform="matrix(0.11186412,0.11186412,-0.11186412,0.11186412,-63.653755,-110.77334)"
       x1="878.84003"
       y1="298.20001"
       x2="840.21997"
       y2="329.10001" /><linearGradient
       id="未命名漸層_14"
       x1="878.84003"
       y1="298.20001"
       x2="840.21997"
       y2="329.10001"
       gradientTransform="rotate(45,742.71526,-750.85727)"
       gradientUnits="userSpaceOnUse"><stop
         offset="0"
         stop-color="#dae1ef"
         id="stop12" /><stop
         offset="1"
         stop-color="#809ec8"
         id="stop14" /></linearGradient></defs><sodipodi:namedview
     pagecolor="#ffffff"
     bordercolor="#666666"
     borderopacity="1"
     objecttolerance="10"
     gridtolerance="10"
     guidetolerance="10"
     inkscape:pageopacity="0"
     inkscape:pageshadow="2"
     inkscape:window-width="997"
     inkscape:window-height="661"
     id="namedview15"
     showgrid="false"
     inkscape:zoom="5.2149125"
     inkscape:cx="-0.57527331"
     inkscape:cy="16.011774"
     inkscape:window-x="708"
     inkscape:window-y="271"
     inkscape:window-maximized="0"
     inkscape:current-layer="svg2"
     inkscape:pagecheckerboard="0" /><style
     type="text/css"
     id="style4">
	.icon_x002D_canvas_x002D_transparent{opacity:0;fill:#F6F6F6;}
	.st0{fill:#AA278F;}
	.st1{fill:#FFFFFF;}
</style><g
     id="canvas"
     transform="translate(59.444909,4.9857021)"><path
       class="icon_x002D_canvas_x002D_transparent"
       d="M 16,-20 H 0 V -36 H 16 Z M 32,0 H 0 V 32 H 32 Z M 48,100 H 0 V 52 h 48 z m 16,84 H 0 V 120 H 64 Z M 116,32 H 84 V 0 h 32 z M 100,-36 H 84 v 16 h 16 z m 32,88 H 84 v 48 h 48 z m 16,68 H 84 v 64 h 64 z"
       id="path7" /></g><rect
     class="cls-4"
     x="-11.289644"
     y="13.524208"
     width="13.431159"
     height="13.424831"
     transform="rotate(-45)"
     id="rect27-4"
     style="opacity:0.65;fill:url(#linearGradient2865);stroke-width:0.1582" /><polygon
     class="cls-2"
     points="0.2,76.3 0.2,23.3 53.2,23.3 "
     id="polygon21"
     style="fill:#809ec8"
     transform="matrix(0.15819976,0,0,0.15819976,1.5874152,4.4054247)" /><polygon
     class="cls-2"
     points="0.2,89.9 0.2,142.9 53.2,142.9 "
     id="polygon23"
     style="fill:#809ec8"
     transform="matrix(0.15819976,0,0,0.15819976,1.5874152,4.4054247)" /><polygon
     class="cls-2"
     points="119.8,89.9 119.8,142.9 66.8,142.9 "
     id="polygon25"
     style="fill:#809ec8"
     transform="matrix(0.15819976,0,0,0.15819976,1.5874152,4.4054247)" /><path
     class="cls-5"
     d="m 12.376638,20.494339 3.132355,-4.208113 h -2.626116 l -1.471258,2.009137 c -0.0791,0.12656 -0.901739,0.965019 -0.901739,0.965019 a 3.8442539,3.8442539 0 0 1 -1.4712568,0.648619 3.796794,3.796794 0 0 1 -0.727719,0.0791 3.7809741,3.7809741 0 0 1 -2.768496,-1.249777 v 8.273846 h 3.686054 v -5.536991 l 5.3155128,5.53699 h 4.334673 z"
     id="path31"
     style="fill:#ffffff;stroke-width:0.1582" /><rect
     class="cls-5"
     x="6.7235799"
     y="26.269156"
     width="0.71189886"
     height="2.7305276"
     transform="rotate(-49.6)"
     id="rect33"
     style="fill:#ffffff;stroke-width:0.1582" /><path
     class="cls-5"
     d="M 25.159178,10.717595 A 1.3763378,1.3763378 0 0 0 24.589659,9.8791356 c 0,0 -6.77095,-5.1573117 -6.992429,-5.2680512 v 0 a 1.882577,1.882577 0 0 0 -1.249778,-0.1582001 1.930037,1.930037 0 0 0 -1.502898,2.2938964 1.9933169,1.9933169 0 0 0 0.64862,1.0757587 v 0 c 0.189839,0.1581998 7.735967,4.3504936 7.767606,4.3663136 h 0.01583 a 1.3130579,1.3130579 0 0 0 0.854279,0.110739 1.3288779,1.3288779 0 0 0 1.028298,-1.581997 z M 16.980251,7.5061397 a 1.1864982,1.1864982 0 1 1 0.933379,-1.407978 1.1864982,1.1864982 0 0 1 -0.933379,1.407978 z m 7.039888,4.2872143 a 0.82263871,0.82263871 0 1 1 0.632799,-0.965019 0.80681875,0.80681875 0 0 1 -0.632799,0.965019 z"
     id="path35"
     style="fill:#ffffff;stroke-width:0.1582" /><path
     class="cls-5"
     d="m 30.474689,14.830789 a 0.71189888,0.71189888 0 0 1 -1.012479,0.09492 l -3.195634,-2.689396 a 0.71189888,0.71189888 0 0 1 -0.09492,-0.996659 v 0 a 0.71189888,0.71189888 0 0 1 1.012477,-0.09492 l 3.195635,2.689396 a 0.71189888,0.71189888 0 0 1 0.09492,0.996658 z"
     id="path37"
     style="fill:#ffffff;stroke-width:0.1582" /><path
     class="cls-5"
     d="m 27.373974,13.96069 a 0.61697901,0.61697901 0 0 1 -0.870098,0.0791 l -1.107399,-0.933377 a 0.61697901,0.61697901 0 0 1 -0.0791,-0.854279 v 0 a 0.61697901,0.61697901 0 0 1 0.870098,-0.0791 l 1.107398,0.917558 a 0.63279902,0.63279902 0 0 1 0.0791,0.870099 z"
     id="path39"
     style="fill:#ffffff;stroke-width:0.1582" /><path
     class="cls-5"
     d="m 27.168315,15.400306 a 0.63279902,0.63279902 0 0 1 -0.870099,0.0791 l -1.692737,-1.423797 a 0.61697901,0.61697901 0 0 1 -0.06328,-0.870098 v 0 a 0.61697901,0.61697901 0 0 1 0.854279,-0.0791 l 1.692737,1.423798 a 0.61697901,0.61697901 0 0 1 0.0791,0.870096 z"
     id="path41"
     style="fill:#ffffff;stroke-width:0.1582" /><polygon
     class="cls-5"
     points="145.2,55.4 153.5,62.4 163.2,50.1 155.6,43 "
     id="polygon43"
     style="fill:#ffffff"
     transform="matrix(0.15819976,0,0,0.15819976,1.5874152,4.4054247)" /><path
     class="cls-5"
     d="m 15.240054,8.5027982 v 0 l -0.14238,-0.09492 A 2.8001356,2.8001356 0 0 1 14.180115,6.8417006 2.5786559,2.5786559 0 0 1 14.132655,6.3512817 L 6.3966872,14.05561 a 1.7243773,1.7243773 0 0 0 -0.284759,0.30058 h -0.03164 a 2.9425153,2.9425153 0 0 0 2.815955,4.809272 2.8317756,2.8317756 0 0 0 1.6452768,-0.965018 h 0.01582 l 0.2373,-0.3164 6.153972,-8.3845874 C 16.141795,9.0406773 15.508995,8.6768179 15.240054,8.5027982 Z M 8.6747632,18.058065 a 1.8034771,1.8034771 0 1 1 1.4079778,-2.135697 1.8034771,1.8034771 0 0 1 -1.4079778,2.135697 z"
     id="path45"
     style="fill:#ffffff;stroke-width:0.1582" /><path
     class="cls-5"
     d="m 29.588771,9.720937 a 0.85427863,0.85427863 0 1 0 0.854278,0.854279 0.85427863,0.85427863 0 0 0 -0.854278,-0.854279 z m 0,1.566177 a 0.71189888,0.71189888 0 1 1 0.711899,-0.711898 0.71189888,0.71189888 0 0 1 -0.711899,0.711898 z"
     id="path89"
     style="fill:#ffffff;stroke-width:0.1582" /><path
     class="cls-5"
     d="m 29.177451,11.113095 v -1.012478 h 0.664439 a 0.26893957,0.26893957 0 0 1 0.12656,0.09492 0.31639949,0.31639949 0 0 1 0.04746,0.174021 0.33221948,0.33221948 0 0 1 -0.0791,0.189838 0.31639949,0.31639949 0 0 1 -0.189839,0.09492 0.28475955,0.28475955 0 0 1 0.11074,0.0791 l 0.11074,0.158199 0.12656,0.20566 h -0.25312 l -0.142379,-0.22148 a 0.71189888,0.71189888 0 0 0 -0.11074,-0.142379 c -0.01583,-0.03164 -0.03164,-0.04746 -0.06328,-0.04746 h -0.14238 v 0.427139 z m 0.20566,-0.585339 h 0.33222 c 0.03164,0 0.04746,-0.01583 0.06328,-0.04746 a 0.11073983,0.11073983 0 0 0 0.01583,-0.0791 0.14237977,0.14237977 0 0 0 -0.01583,-0.0791 l -0.0791,-0.03164 h -0.3164 z"
     id="path91"
     style="fill:#ffffff;stroke-width:0.1582" /></svg>
