<?xml version="1.0" encoding="UTF-8" standalone="no"?>
<!-- Generator: Adobe Illustrator 21.0.2, SVG Export Plug-In . SVG Version: 6.00 Build 0)  -->

<svg
   version="1.1"
   x="0px"
   y="0px"
   viewBox="0 0 32 32"
   style="enable-background:new 0 0 32 32;"
   xml:space="preserve"
   id="svg2"
   inkscape:version="1.1 (c4e8f9e, 2021-05-24)"
   sodipodi:docname="loader.svg"
   xmlns:inkscape="http://www.inkscape.org/namespaces/inkscape"
   xmlns:sodipodi="http://sodipodi.sourceforge.net/DTD/sodipodi-0.dtd"
   xmlns:xlink="http://www.w3.org/1999/xlink"
   xmlns="http://www.w3.org/2000/svg"
   xmlns:svg="http://www.w3.org/2000/svg"
   xmlns:rdf="http://www.w3.org/1999/02/22-rdf-syntax-ns#"
   xmlns:cc="http://creativecommons.org/ns#"
   xmlns:dc="http://purl.org/dc/elements/1.1/"><metadata
     id="metadata19"><rdf:RDF><cc:Work
         rdf:about=""><dc:format>image/svg+xml</dc:format><dc:type
           rdf:resource="http://purl.org/dc/dcmitype/StillImage" /><dc:title /></cc:Work></rdf:RDF></metadata><defs
     id="defs17"><mask
       id="mask"
       x="0"
       y="23.07"
       width="120"
       height="120.01"
       maskUnits="userSpaceOnUse"><rect
         class="cls-1"
         x="17.6"
         y="40.599998"
         width="84.900002"
         height="84.860001"
         transform="rotate(-45,60.034733,83.132799)"
         id="rect9" /></mask><linearGradient
       id="未命名漸層_17"
       x1="878.84003"
       y1="298.20001"
       x2="840.21997"
       y2="329.10001"
       gradientTransform="rotate(45,742.71526,-750.85727)"
       gradientUnits="userSpaceOnUse"><stop
         offset="0"
         stop-color="#231815"
         id="stop4" /><stop
         offset="1"
         stop-color="#fff"
         id="stop6" /></linearGradient><linearGradient
       id="未命名漸層_14"
       x1="878.84003"
       y1="298.20001"
       x2="840.21997"
       y2="329.10001"
       gradientTransform="rotate(45,766.8539,-893.483)"
       gradientUnits="userSpaceOnUse"><stop
         offset="0"
         stop-color="#dae1ef"
         id="stop12" /><stop
         offset="1"
         stop-color="#809ec8"
         id="stop14" /></linearGradient><mask
       id="mask-5"
       x="0"
       y="23.07"
       width="120"
       height="120.01"
       maskUnits="userSpaceOnUse"><rect
         class="cls-1"
         x="17.6"
         y="40.599998"
         width="84.900002"
         height="84.860001"
         transform="rotate(-45,60.034733,83.132799)"
         id="rect9-4" /></mask><linearGradient
       id="未命名漸層_14-5"
       x1="878.84003"
       y1="298.20001"
       x2="840.21997"
       y2="329.10001"
       gradientTransform="rotate(45,742.71526,-750.85727)"
       gradientUnits="userSpaceOnUse"><stop
         offset="0"
         stop-color="#dae1ef"
         id="stop12-9" /><stop
         offset="1"
         stop-color="#809ec8"
         id="stop14-5" /></linearGradient><linearGradient
       inkscape:collect="always"
       xlink:href="#%E6%9C%AA%E5%91%BD%E5%90%8D%E6%BC%B8%E5%B1%A4_14"
       id="linearGradient2865"
       gradientUnits="userSpaceOnUse"
       gradientTransform="matrix(0.11186412,0.11186412,-0.11186412,0.11186412,-63.060425,-111.05926)"
       x1="878.84003"
       y1="298.20001"
       x2="840.21997"
       y2="329.10001" /></defs><sodipodi:namedview
     pagecolor="#ffffff"
     bordercolor="#666666"
     borderopacity="1"
     objecttolerance="10"
     gridtolerance="10"
     guidetolerance="10"
     inkscape:pageopacity="0"
     inkscape:pageshadow="2"
     inkscape:window-width="997"
     inkscape:window-height="661"
     id="namedview15"
     showgrid="false"
     inkscape:zoom="2.5727379"
     inkscape:cx="-38.091715"
     inkscape:cy="-18.07413"
     inkscape:window-x="0"
     inkscape:window-y="25"
     inkscape:window-maximized="0"
     inkscape:current-layer="svg2"
     inkscape:pagecheckerboard="0" /><style
     type="text/css"
     id="style4">
	.icon_x002D_canvas_x002D_transparent{opacity:0;fill:#F6F6F6;}
	.st0{fill:#AA278F;}
	.st1{fill:#FFFFFF;}
</style><rect
     class="cls-4"
     x="-10.696308"
     y="13.238278"
     width="13.431159"
     height="13.424831"
     transform="rotate(-45)"
     id="rect27-4"
     style="opacity:0.65;fill:url(#linearGradient2865);stroke-width:0.1582" /><polygon
     class="cls-2"
     points="0.2,76.3 0.2,23.3 53.2,23.3 "
     id="polygon21"
     style="fill:#809ec8"
     transform="matrix(0.15819976,0,0,0.15819976,1.804783,3.7836898)" /><polygon
     class="cls-2"
     points="0.2,89.9 0.2,142.9 53.2,142.9 "
     id="polygon23"
     style="fill:#809ec8"
     transform="matrix(0.15819976,0,0,0.15819976,1.804783,3.7836898)" /><polygon
     class="cls-2"
     points="119.8,89.9 119.8,142.9 66.8,142.9 "
     id="polygon25"
     style="fill:#809ec8"
     transform="matrix(0.15819976,0,0,0.15819976,1.804783,3.7836898)" /><path
     class="cls-5"
     d="m 12.594006,19.872605 3.132355,-4.208113 h -2.626116 l -1.471258,2.009136 c -0.0791,0.126561 -0.901739,0.965019 -0.901739,0.965019 a 3.8442539,3.8442539 0 0 1 -1.471257,0.648619 3.796794,3.796794 0 0 1 -0.727719,0.0791 3.7809741,3.7809741 0 0 1 -2.768495,-1.249777 v 8.273846 H 9.44583 v -5.536991 l 5.315513,5.53699 h 4.334673 z"
     id="path31"
     style="fill:#ffffff;stroke-width:0.1582" /><rect
     class="cls-5"
     x="7.337934"
     y="26.031731"
     width="0.71189886"
     height="2.7305276"
     transform="rotate(-49.6)"
     id="rect33"
     style="fill:#ffffff;stroke-width:0.1582" /><path
     class="cls-5"
     d="M 25.376546,10.09586 A 1.3763378,1.3763378 0 0 0 24.807027,9.257401 c 0,0 -6.77095,-5.1573122 -6.992429,-5.2680512 v 0 a 1.882577,1.882577 0 0 0 -1.249778,-0.1582 1.930037,1.930037 0 0 0 -1.502898,2.293896 1.9933169,1.9933169 0 0 0 0.64862,1.075759 v 0 c 0.189839,0.1582 7.735967,4.3504932 7.767606,4.3663132 h 0.01583 a 1.3130579,1.3130579 0 0 0 0.854279,0.110739 1.3288779,1.3288779 0 0 0 1.028298,-1.581997 z M 17.197619,6.8844048 a 1.1864982,1.1864982 0 1 1 0.933379,-1.407978 1.1864982,1.1864982 0 0 1 -0.933379,1.407978 z m 7.039888,4.2872142 a 0.82263871,0.82263871 0 1 1 0.632799,-0.965019 0.80681875,0.80681875 0 0 1 -0.632799,0.965019 z"
     id="path35"
     style="fill:#ffffff;stroke-width:0.1582" /><path
     class="cls-5"
     d="m 30.692057,14.209054 a 0.71189888,0.71189888 0 0 1 -1.012479,0.09492 l -3.195634,-2.689396 a 0.71189888,0.71189888 0 0 1 -0.09492,-0.996659 v 0 a 0.71189888,0.71189888 0 0 1 1.012477,-0.09492 l 3.195635,2.689396 a 0.71189888,0.71189888 0 0 1 0.09492,0.996658 z"
     id="path37"
     style="fill:#ffffff;stroke-width:0.1582" /><path
     class="cls-5"
     d="m 27.591342,13.338955 a 0.61697901,0.61697901 0 0 1 -0.870098,0.0791 l -1.107399,-0.933377 a 0.61697901,0.61697901 0 0 1 -0.0791,-0.854279 v 0 a 0.61697901,0.61697901 0 0 1 0.870098,-0.0791 l 1.107398,0.917558 a 0.63279902,0.63279902 0 0 1 0.0791,0.870099 z"
     id="path39"
     style="fill:#ffffff;stroke-width:0.1582" /><path
     class="cls-5"
     d="m 27.385683,14.778572 a 0.63279902,0.63279902 0 0 1 -0.870099,0.0791 l -1.692737,-1.423798 a 0.61697901,0.61697901 0 0 1 -0.06328,-0.870098 v 0 a 0.61697901,0.61697901 0 0 1 0.854279,-0.0791 l 1.692737,1.423798 a 0.61697901,0.61697901 0 0 1 0.0791,0.870098 z"
     id="path41"
     style="fill:#ffffff;stroke-width:0.1582" /><polygon
     class="cls-5"
     points="155.6,43 145.2,55.4 153.5,62.4 163.2,50.1 "
     id="polygon43"
     style="fill:#ffffff"
     transform="matrix(0.15819976,0,0,0.15819976,1.804783,3.7836898)" /><path
     class="cls-5"
     d="m 15.457422,7.8810638 v 0 l -0.14238,-0.09492 a 2.8001356,2.8001356 0 0 1 -0.917559,-1.566178 2.5786559,2.5786559 0 0 1 -0.04746,-0.490419 L 6.614055,13.433875 a 1.7243773,1.7243773 0 0 0 -0.28476,0.30058 h -0.03164 a 2.9425153,2.9425153 0 0 0 2.815956,4.809272 2.8317756,2.8317756 0 0 0 1.645277,-0.965018 h 0.01582 l 0.2373,-0.3164 6.153972,-8.384587 C 16.359163,8.418943 15.726363,8.055083 15.457422,7.8810638 Z M 8.892131,17.43633 a 1.8034771,1.8034771 0 1 1 1.407978,-2.135697 1.8034771,1.8034771 0 0 1 -1.407978,2.135697 z"
     id="path45"
     style="fill:#ffffff;stroke-width:0.1582" /><path
     class="cls-5"
     d="m 29.806139,9.099202 a 0.85427863,0.85427863 0 1 0 0.854278,0.854279 0.85427863,0.85427863 0 0 0 -0.854278,-0.854279 z m 0,1.566177 a 0.71189888,0.71189888 0 1 1 0.711899,-0.711898 0.71189888,0.71189888 0 0 1 -0.711899,0.711898 z"
     id="path89"
     style="fill:#ffffff;stroke-width:0.1582" /><path
     class="cls-5"
     d="M 29.394819,10.49136 V 9.478882 h 0.664439 a 0.26893957,0.26893957 0 0 1 0.12656,0.09492 0.31639949,0.31639949 0 0 1 0.04746,0.174021 0.33221948,0.33221948 0 0 1 -0.0791,0.189838 0.31639949,0.31639949 0 0 1 -0.189839,0.09492 0.28475955,0.28475955 0 0 1 0.11074,0.0791 l 0.11074,0.158199 0.12656,0.20566 h -0.25312 L 29.91688,10.25406 a 0.71189888,0.71189888 0 0 0 -0.11074,-0.142379 c -0.01583,-0.03164 -0.03164,-0.04746 -0.06328,-0.04746 h -0.14238 v 0.427139 z m 0.20566,-0.585339 h 0.33222 c 0.03164,0 0.04746,-0.01583 0.06328,-0.04746 a 0.11073983,0.11073983 0 0 0 0.01583,-0.0791 0.14237977,0.14237977 0 0 0 -0.01583,-0.0791 l -0.0791,-0.03164 h -0.3164 z"
     id="path91"
     style="fill:#ffffff;stroke-width:0.1582" /></svg>
