<?xml version="1.0" encoding="UTF-8" standalone="no"?>
<!-- Generator: Adobe Illustrator 21.0.2, SVG Export Plug-In . SVG Version: 6.00 Build 0)  -->

<svg
   version="1.1"
   x="0px"
   y="0px"
   viewBox="0 0 31.409595 24.463133"
   xml:space="preserve"
   id="svg2"
   inkscape:version="1.1 (c4e8f9e, 2021-05-24)"
   sodipodi:docname="logo.svg"
   width="31.409595"
   height="24.463133"
   xmlns:inkscape="http://www.inkscape.org/namespaces/inkscape"
   xmlns:sodipodi="http://sodipodi.sourceforge.net/DTD/sodipodi-0.dtd"
   xmlns:xlink="http://www.w3.org/1999/xlink"
   xmlns="http://www.w3.org/2000/svg"
   xmlns:svg="http://www.w3.org/2000/svg"
   xmlns:rdf="http://www.w3.org/1999/02/22-rdf-syntax-ns#"
   xmlns:cc="http://creativecommons.org/ns#"
   xmlns:dc="http://purl.org/dc/elements/1.1/"><metadata
     id="metadata19"><rdf:RDF><cc:Work
         rdf:about=""><dc:format>image/svg+xml</dc:format><dc:type
           rdf:resource="http://purl.org/dc/dcmitype/StillImage" /></cc:Work></rdf:RDF></metadata><defs
     id="defs17"><mask
       id="mask"
       x="0"
       y="23.07"
       width="120"
       height="120.01"
       maskUnits="userSpaceOnUse"><rect
         class="cls-1"
         x="17.6"
         y="40.599998"
         width="84.900002"
         height="84.860001"
         transform="rotate(-45,60.034733,83.132799)"
         id="rect9" /></mask><linearGradient
       id="未命名漸層_17"
       x1="878.84003"
       y1="298.20001"
       x2="840.21997"
       y2="329.10001"
       gradientTransform="rotate(45,742.71526,-750.85727)"
       gradientUnits="userSpaceOnUse"><stop
         offset="0"
         stop-color="#231815"
         id="stop4" /><stop
         offset="1"
         stop-color="#fff"
         id="stop6" /></linearGradient><linearGradient
       id="未命名漸層_14"
       x1="878.84003"
       y1="298.20001"
       x2="840.21997"
       y2="329.10001"
       gradientTransform="rotate(45,742.71526,-750.85727)"
       gradientUnits="userSpaceOnUse"><stop
         offset="0"
         stop-color="#dae1ef"
         id="stop12" /><stop
         offset="1"
         stop-color="#809ec8"
         id="stop14" /></linearGradient><linearGradient
       inkscape:collect="always"
       xlink:href="#%E6%9C%AA%E5%91%BD%E5%90%8D%E6%BC%B8%E5%B1%A4_14"
       id="linearGradient2865"
       gradientUnits="userSpaceOnUse"
       gradientTransform="matrix(0.12092887,0.12092887,-0.12092887,0.12092887,-66.649066,-124.32813)"
       x1="878.84003"
       y1="298.20001"
       x2="840.21997"
       y2="329.10001" /></defs><sodipodi:namedview
     pagecolor="#ffffff"
     bordercolor="#666666"
     borderopacity="1"
     objecttolerance="10"
     gridtolerance="10"
     guidetolerance="10"
     inkscape:pageopacity="0"
     inkscape:pageshadow="2"
     inkscape:window-width="1848"
     inkscape:window-height="1117"
     id="namedview15"
     showgrid="false"
     inkscape:zoom="4.2472883"
     inkscape:cx="-84.171352"
     inkscape:cy="-0.35316651"
     inkscape:window-x="0"
     inkscape:window-y="25"
     inkscape:window-maximized="0"
     inkscape:current-layer="svg2"
     inkscape:pagecheckerboard="0"
     fit-margin-top="0"
     fit-margin-left="0"
     fit-margin-right="0"
     fit-margin-bottom="0" /><style
     type="text/css"
     id="style4">
	.icon_x002D_canvas_x002D_transparent{opacity:0;fill:#F6F6F6;}
	.st0{fill:#AA278F;}
	.st1{fill:#FFFFFF;}
</style><rect
     class="cls-4"
     x="-10.0417"
     y="10.0417"
     width="14.519534"
     height="14.512693"
     transform="rotate(-45)"
     id="rect27-4"
     style="opacity:0.65;fill:url(#linearGradient2865);stroke-width:0.17102" /><polygon
     class="cls-2"
     points="53.2,23.3 0.2,76.3 0.2,23.3 "
     id="polygon21"
     style="fill:#809ec8"
     transform="matrix(0.17101926,0,0,0.17101926,0.00793185,-0.00434203)" /><polygon
     class="cls-2"
     points="53.2,142.9 0.2,89.9 0.2,142.9 "
     id="polygon23"
     style="fill:#809ec8"
     transform="matrix(0.17101926,0,0,0.17101926,0.00793185,-0.00434203)" /><polygon
     class="cls-2"
     points="66.8,142.9 119.8,89.9 119.8,142.9 "
     id="polygon25"
     style="fill:#809ec8"
     transform="matrix(0.17101926,0,0,0.17101926,0.00793185,-0.00434203)" /><path
     class="cls-5"
     d="m 11.671444,17.388316 3.386181,-4.549111 h -2.83892 l -1.590479,2.171943 c -0.08551,0.136817 -0.9748097,1.043218 -0.9748097,1.043218 A 4.1557676,4.1557676 0 0 1 8.062938,16.755545 4.1044619,4.1044619 0 0 1 7.2762493,16.841055 4.08736,4.08736 0 0 1 4.2834132,15.490004 v 8.944305 h 3.9847472 v -5.985673 l 5.7462476,5.985672 h 4.685927 z"
     id="path31"
     style="fill:#ffffff;stroke-width:0.17102" /><rect
     class="cls-5"
     x="9.7914162"
     y="24.007616"
     width="0.76958656"
     height="2.951792"
     transform="rotate(-49.6)"
     id="rect33"
     style="fill:#ffffff;stroke-width:0.17102" /><path
     class="cls-5"
     d="M 25.489799,6.8193262 A 1.4878674,1.4878674 0 0 0 24.87413,5.9129238 c 0,0 -7.319624,-5.57522783 -7.559051,-5.69494043 v 0 a 2.035129,2.035129 0 0 0 -1.351052,-0.1710195 2.0864348,2.0864348 0 0 0 -1.624683,2.47977863 2.1548425,2.1548425 0 0 0 0.70118,1.1629316 v 0 c 0.205223,0.1710196 8.36284,4.7030301 8.397043,4.7201321 h 0.01711 a 1.4194597,1.4194597 0 0 0 0.923504,0.119712 1.4365617,1.4365617 0 0 0 1.111625,-1.710192 z M 16.648104,3.3476351 a 1.2826444,1.2826444 0 1 1 1.009014,-1.5220715 1.2826444,1.2826444 0 0 1 -1.009014,1.5220715 z m 7.610356,4.6346231 a 0.88930008,0.88930008 0 1 1 0.684077,-1.043218 0.87219817,0.87219817 0 0 1 -0.684077,1.043218 z"
     id="path35"
     style="fill:#ffffff;stroke-width:0.17102" /><path
     class="cls-5"
     d="m 31.236045,11.265827 a 0.76958661,0.76958661 0 0 1 -1.094524,0.102612 L 26.686934,8.4611122 a 0.76958661,0.76958661 0 0 1 -0.102612,-1.077422 v 0 a 0.76958661,0.76958661 0 0 1 1.094522,-0.102612 l 3.454588,2.9073268 a 0.76958661,0.76958661 0 0 1 0.102612,1.077421 z"
     id="path37"
     style="fill:#ffffff;stroke-width:0.17102" /><path
     class="cls-5"
     d="m 27.884068,10.325221 a 0.66697504,0.66697504 0 0 1 -0.940605,0.08551 L 25.746327,9.4017192 a 0.66697504,0.66697504 0 0 1 -0.08551,-0.923504 v 0 a 0.66697504,0.66697504 0 0 1 0.940605,-0.08551 l 1.197134,0.991911 a 0.684077,0.684077 0 0 1 0.08551,0.9406058 z"
     id="path39"
     style="fill:#ffffff;stroke-width:0.17102" /><path
     class="cls-5"
     d="m 27.661744,11.881495 a 0.684077,0.684077 0 0 1 -0.940606,0.08551 l -1.829906,-1.539173 a 0.66697504,0.66697504 0 0 1 -0.06841,-0.9406048 v 0 a 0.66697504,0.66697504 0 0 1 0.923505,-0.08551 l 1.829905,1.5391728 a 0.66697504,0.66697504 0 0 1 0.08551,0.940604 z"
     id="path41"
     style="fill:#ffffff;stroke-width:0.17102" /><polygon
     class="cls-5"
     points="153.5,62.4 163.2,50.1 155.6,43 145.2,55.4 "
     id="polygon43"
     style="fill:#ffffff"
     transform="matrix(0.17101926,0,0,0.17101926,0.00793185,-0.00434203)" /><path
     class="cls-5"
     d="m 14.766893,4.425057 v 0 L 14.612975,4.3224453 A 3.0270407,3.0270407 0 0 1 13.621063,2.6293542 2.7876137,2.7876137 0 0 1 13.569757,2.0991948 L 5.2069165,10.427833 A 1.8641098,1.8641098 0 0 0 4.8990824,10.75277 h -0.034204 a 3.1809579,3.1809579 0 0 0 3.044142,5.198984 3.0612446,3.0612446 0 0 0 1.7785999,-1.043216 h 0.0171 L 9.961251,14.566499 16.613902,5.5024781 C 15.741705,5.0065222 15.057627,4.6131774 14.766893,4.425057 Z M 7.6695932,14.754621 a 1.9496193,1.9496193 0 1 1 1.5220715,-2.30876 1.9496193,1.9496193 0 0 1 -1.5220715,2.30876 z"
     id="path45"
     style="fill:#ffffff;stroke-width:0.17102" /><path
     class="cls-5"
     d="m 30.278338,5.7419054 a 0.9235039,0.9235039 0 1 0 0.923503,0.9235038 0.9235039,0.9235039 0 0 0 -0.923503,-0.9235038 z m 0,1.6930898 a 0.76958661,0.76958661 0 1 1 0.769587,-0.769586 0.76958661,0.76958661 0 0 1 -0.769587,0.769586 z"
     id="path89"
     style="fill:#ffffff;stroke-width:0.17102" /><path
     class="cls-5"
     d="m 29.833687,7.2468752 v -1.094523 h 0.718281 a 0.29073271,0.29073271 0 0 1 0.136816,0.1026118 0.34203848,0.34203848 0 0 1 0.05131,0.1881225 0.35914042,0.35914042 0 0 1 -0.08551,0.2052217 0.34203848,0.34203848 0 0 1 -0.205222,0.102611 0.30783464,0.30783464 0 0 1 0.119713,0.08551 l 0.119714,0.171019 0.136816,0.222325 h -0.273636 l -0.153916,-0.239427 a 0.76958661,0.76958661 0 0 0 -0.119714,-0.153917 c -0.01711,-0.0342 -0.0342,-0.05131 -0.06841,-0.05131 h -0.153917 v 0.461752 z m 0.222326,-0.632771 h 0.359141 c 0.0342,0 0.05131,-0.01711 0.06841,-0.05131 a 0.11971348,0.11971348 0 0 0 0.01711,-0.08551 0.15391731,0.15391731 0 0 0 -0.01711,-0.08551 l -0.08551,-0.034204 h -0.342039 z"
     id="path91"
     style="fill:#ffffff;stroke-width:0.17102" /></svg>
